<svg viewBox="85.116 3.045 142.701 33.778" xmlns="http://www.w3.org/2000/svg">
  <path d="M 91.231 20.393 C 88.364 23.243 88.364 27.881 91.231 30.731 C 93.903 33.389 98.127 33.609 101.056 31.245 C 101.905 30.559 103.152 30.688 103.842 31.532 C 104.531 32.376 104.402 33.616 103.553 34.302 C 101.462 35.99 98.943 36.823 96.432 36.823 C 93.528 36.823 90.635 35.709 88.429 33.516 C 86.293 31.391 85.116 28.567 85.116 25.562 C 85.116 22.557 86.293 19.733 88.429 17.608 C 92.393 13.667 98.555 13.185 103.08 16.461 C 103.24 16.577 103.399 16.698 103.555 16.824 C 104.403 17.51 104.531 18.75 103.841 19.594 C 103.151 20.438 101.904 20.566 101.055 19.879 C 100.955 19.798 100.853 19.72 100.75 19.646 C 97.809 17.517 93.807 17.831 91.231 20.393 Z M 113.17 15.825 C 112.596 15.285 111.754 15.135 111.026 15.446 C 110.299 15.757 109.828 16.468 109.828 17.255 L 109.828 34.421 C 109.828 35.508 110.714 36.39 111.808 36.39 C 112.902 36.39 113.789 35.508 113.789 34.421 L 113.789 21.833 L 128.672 35.85 C 129.055 36.211 129.545 36.39 130.034 36.39 C 130.558 36.39 131.082 36.183 131.472 35.775 C 132.224 34.985 132.19 33.739 131.396 32.991 L 113.17 15.825 Z M 227.199 32.991 L 208.973 15.825 C 208.399 15.285 207.556 15.135 206.828 15.446 C 206.101 15.757 205.63 16.468 205.63 17.255 L 205.63 34.421 C 205.63 35.508 206.517 36.39 207.611 36.39 C 208.705 36.39 209.591 35.508 209.591 34.421 L 209.591 21.833 L 224.475 35.85 C 224.858 36.211 225.348 36.39 225.837 36.39 C 226.361 36.39 226.885 36.183 227.275 35.775 C 228.027 34.985 227.993 33.739 227.199 32.991 Z M 182.055 15.286 C 180.961 15.286 180.074 16.167 180.074 17.255 L 180.074 29.843 L 165.191 15.825 C 164.396 15.078 163.143 15.112 162.391 15.901 C 161.639 16.69 161.673 17.937 162.467 18.685 L 180.692 35.85 C 181.068 36.204 181.558 36.39 182.055 36.39 C 182.319 36.39 182.585 36.337 182.837 36.229 C 183.564 35.919 184.035 35.207 184.035 34.421 L 184.035 17.255 C 184.035 16.167 183.149 15.286 182.055 15.286 Z M 194.855 15.286 C 193.761 15.286 192.874 16.167 192.874 17.255 L 192.874 34.421 C 192.874 35.508 193.761 36.39 194.855 36.39 C 195.949 36.39 196.835 35.508 196.835 34.421 L 196.835 17.255 C 196.835 16.167 195.949 15.286 194.855 15.286 Z M 156.31 15.286 C 155.217 15.286 154.33 16.167 154.33 17.255 L 154.33 29.843 L 139.447 15.825 C 138.873 15.285 138.03 15.135 137.302 15.446 C 136.575 15.757 136.104 16.468 136.104 17.255 L 136.104 34.421 C 136.104 35.508 136.991 36.39 138.085 36.39 C 139.179 36.39 140.065 35.508 140.065 34.421 L 140.065 21.833 L 154.948 35.85 C 155.324 36.204 155.814 36.39 156.311 36.39 C 156.575 36.39 156.841 36.337 157.093 36.229 C 157.82 35.919 158.291 35.207 158.291 34.421 L 158.291 17.255 C 158.291 16.167 157.404 15.286 156.31 15.286 Z" fill="#FF5700"/>
  <path d="M 197.848 6.02 C 197.848 4.377 196.508 3.045 194.855 3.045 C 193.202 3.045 191.862 4.377 191.862 6.02 C 191.862 7.664 193.202 8.996 194.855 8.996 C 196.508 8.996 197.848 7.664 197.848 6.02" fill="#005193"/>
</svg>