<svg viewBox="0 0 302 303.2" xmlns="http://www.w3.org/2000/svg">
  <linearGradient id="SVGID_1_" gradientUnits="userSpaceOnUse" x1="123.80515" y1="148.7886" x2="294.7471" y2="67.87608" gradientTransform="matrix(0.97845, 0.20649, -0.20649, 0.97845, -33.134617, 2.95748)">
    <stop offset="0" style="stop-color:#FF5700"/>
    <stop offset="0.8587" style="stop-color:#FF5700;stop-opacity:0.1"/>
    <stop offset="1" style="stop-color:#FFFFFF;stop-opacity:0"/>
  </linearGradient>
  <path fill="url(#SVGID_1_)" d="M 200.911 8.252 C 121.864 -18.932 35.437 23.261 8.252 102.308 C -18.933 181.355 23.261 267.781 102.308 294.966 C 181.355 322.151 267.782 279.958 294.967 200.911 C 322.152 121.864 279.958 35.437 200.911 8.252 Z M 121.767 238.436 C 73.718 221.912 48.071 169.378 64.596 121.33 C 81.12 73.281 133.654 47.635 181.702 64.159 C 229.75 80.683 255.397 133.217 238.873 181.265 C 222.349 229.313 169.815 254.96 121.767 238.436 Z"/>
  <linearGradient id="SVGID_2_" gradientUnits="userSpaceOnUse" x1="389.69772" y1="181.36769" x2="103.32209" y2="181.36769" gradientTransform="matrix(0.98757, 0.15716, -0.15716, 0.98757, -28.504606, 0.79836)">
    <stop offset="0.4356" style="stop-color:#FF5700"/>
    <stop offset="1" style="stop-color:#FF5700;stop-opacity:0.5"/>
  </linearGradient>
  <path fill="url(#SVGID_2_)" d="M 276.715 141.217 C 260.502 138.637 245.267 149.689 242.688 165.901 C 234.702 216.08 187.382 250.407 137.203 242.422 C 87.024 234.437 52.697 187.117 60.682 136.938 L 1.971 127.595 C -11.166 210.147 45.308 287.997 127.86 301.133 C 210.413 314.27 288.262 257.796 301.399 175.244 C 303.979 159.032 292.927 143.797 276.715 141.217 Z"/>
  <ellipse fill="#005193" cx="252.565" cy="83.304" rx="29.641" ry="29.749"/>
</svg>